<?xml version="1.0" encoding="utf-8"?>
<!-- Generator: Adobe Illustrator 17.0.0, SVG Export Plug-In . SVG Version: 6.00 Build 0)  -->
<!DOCTYPE svg PUBLIC "-//W3C//DTD SVG 1.1//EN" "http://www.w3.org/Graphics/SVG/1.1/DTD/svg11.dtd">
<svg version="1.1" id="Layer_1" xmlns="http://www.w3.org/2000/svg" xmlns:xlink="http://www.w3.org/1999/xlink" x="0px" y="0px"
	 width="746.375px" height="200.743px" viewBox="0 0 746.375 200.743" enable-background="new 0 0 746.375 200.743"
	 xml:space="preserve">
<g>
	<path fill="#E8442F" d="M181.055,4c-17.981,0-33.12,6.003-45.414,18.009c-12.297,12.006-18.444,26.943-18.444,44.805
		c0,17.864,6.147,32.799,18.444,44.805c12.294,12.006,27.432,18.009,45.414,18.009c17.979,0,33.117-6.003,45.414-18.009
		c12.294-12.006,18.444-26.94,18.444-44.805c0-17.862-6.15-32.799-18.444-44.805C214.172,10.003,199.034,4,181.055,4z
		 M206.807,94.567c-6.96,7.599-15.516,11.396-25.665,11.396c-10.152,0-18.705-3.798-25.665-11.396
		c-6.96-7.597-10.44-16.818-10.44-27.666c0-10.846,3.48-20.098,10.44-27.753c6.96-7.656,15.513-11.484,25.665-11.484
		c10.149,0,18.705,3.828,25.665,11.484c6.96,7.655,10.44,16.907,10.44,27.753C217.247,77.749,213.767,86.971,206.807,94.567z"/>
	<polygon fill="#E8442F" points="308.249,84.214 277.276,6.784 247.871,6.784 247.888,6.827 236.193,6.827 253.978,21.977 
		296.765,128.41 319.733,128.41 368.627,6.784 339.22,6.784 	"/>
	<polygon fill="#E8442F" points="410.819,79.168 465.281,79.168 465.281,56.026 410.819,56.026 410.819,30.97 471.371,30.97 
		471.371,6.784 383.674,6.784 383.674,128.41 473.285,128.41 473.285,104.398 410.819,104.398 	"/>
	<path fill="#E8442F" d="M583.513,22.705c-11.601-10.614-28.248-15.921-49.938-15.921h-42.979V128.41h41.586
		c23.199,0,40.455-5.508,51.766-16.53c11.31-11.019,16.965-25.982,16.965-44.892C600.914,48.082,595.112,33.319,583.513,22.705z
		 M563.59,95.002c-6.672,6.265-16.212,9.396-28.623,9.396h-17.226v-73.95h15.138c13.803,0,24.039,3.219,30.711,9.657
		c6.669,6.438,10.005,15.633,10.005,27.579C573.595,79.633,570.259,88.738,563.59,95.002z"/>
	<path fill="#E8442F" d="M723.931,22.009C711.634,10.003,696.496,4,678.517,4c-17.982,0-33.12,6.003-45.414,18.009
		c-12.297,12.006-18.444,26.943-18.444,44.805c0,17.864,6.147,32.799,18.444,44.805c12.294,12.006,27.432,18.009,45.414,18.009
		c17.979,0,33.117-6.003,45.414-18.009c12.294-12.006,18.443-26.94,18.443-44.805C742.375,48.952,736.225,34.016,723.931,22.009z
		 M704.269,94.567c-6.96,7.599-15.517,11.396-25.665,11.396c-10.152,0-18.705-3.798-25.665-11.396
		c-6.96-7.597-10.44-16.818-10.44-27.666c0-10.846,3.48-20.098,10.44-27.753c6.96-7.656,15.513-11.484,25.665-11.484
		c10.148,0,18.705,3.828,25.665,11.484c6.96,7.655,10.439,16.907,10.439,27.753C714.709,77.749,711.229,86.971,704.269,94.567z"/>
	<path fill="#E8442F" d="M89.09,84.04c8.757-6.96,13.137-17.949,13.137-32.973c0-15.021-4.263-26.157-12.789-33.408
		C80.912,10.411,67.31,6.784,48.635,6.784H5.657V47.16h27.144v-17.06h15.486c8.931,0,15.513,1.479,19.749,4.437
		c4.233,2.958,6.351,7.947,6.351,14.964c0,7.02-1.625,12.354-4.872,16.008c-3.249,3.654-9.396,5.481-18.444,5.481H37.787
		c-9.036,0.368-32.13,3.811-32.13,29.42v28h27.144v-21.312c0.171-3.613,1.732-12.618,13.059-12.618h3.123
		c1.673,0,3.293-0.04,4.887-0.101l23.573,34.03h31.75L81.63,88.619C84.406,87.312,86.893,85.785,89.09,84.04z"/>
</g>
<g>
	<path fill="#5E5F5F" d="M421.043,185.811c-3.699,0-6.883-1.258-9.55-3.775c-2.667-2.517-4-5.808-4-9.875
		c0-4.066,1.392-7.375,4.175-9.925s6.176-3.825,10.176-3.825s7.383,1.384,10.149,4.15l-3.3,4.05c-2.3-2-4.617-3-6.95-3
		s-4.358,0.774-6.075,2.325c-1.717,1.55-2.574,3.55-2.574,6c0,2.449,0.85,4.524,2.55,6.225s3.791,2.55,6.274,2.55
		s4.825-1.133,7.025-3.399l3.3,3.6C429.009,184.178,425.276,185.811,421.043,185.811z"/>
	<path fill="#5E5F5F" d="M459.743,181.835c-2.667,2.65-6,3.976-10,3.976s-7.333-1.325-10-3.976c-2.667-2.649-4-5.892-4-9.725
		s1.333-7.075,4-9.726c2.667-2.649,6-3.975,10-3.975s7.333,1.325,10,3.975c2.667,2.65,4,5.893,4,9.726
		S462.41,179.186,459.743,181.835z M443.718,178.385c1.582,1.617,3.591,2.426,6.024,2.426c2.433,0,4.441-0.809,6.025-2.426
		c1.583-1.616,2.375-3.707,2.375-6.274c0-2.566-0.792-4.658-2.375-6.275c-1.584-1.616-3.593-2.425-6.025-2.425
		c-2.434,0-4.442,0.809-6.024,2.425c-1.584,1.617-2.375,3.709-2.375,6.275C441.343,174.678,442.134,176.769,443.718,178.385z"/>
	<path fill="#5E5F5F" d="M475.693,171.01v14.4h-5.601v-26.6h5.601v4.85c0.8-1.633,2.008-2.916,3.625-3.85
		c1.616-0.934,3.357-1.4,5.225-1.4c4.2,0,7.05,1.733,8.55,5.2c2.633-3.467,5.917-5.2,9.851-5.2c3,0,5.425,0.917,7.274,2.75
		c1.851,1.834,2.775,4.483,2.775,7.95v16.3h-5.601v-14.6c0-4.9-2.033-7.351-6.1-7.351c-1.9,0-3.559,0.608-4.975,1.825
		c-1.418,1.217-2.159,2.992-2.226,5.325v14.8h-5.6v-14.6c0-2.533-0.45-4.392-1.351-5.575c-0.899-1.183-2.316-1.775-4.25-1.775
		s-3.617,0.643-5.05,1.925C476.409,166.669,475.693,168.544,475.693,171.01z"/>
	<path fill="#5E5F5F" d="M539.393,173.21v-14.399h5.6v26.6h-5.6v-4.85c-0.9,1.633-2.143,2.917-3.726,3.85
		c-1.583,0.934-3.292,1.4-5.125,1.4c-3,0-5.425-0.917-7.274-2.75c-1.851-1.833-2.775-4.483-2.775-7.95v-16.3h5.6v14.6
		c0,4.9,2.033,7.35,6.101,7.35c1.933,0,3.616-0.641,5.05-1.925C538.675,177.553,539.393,175.678,539.393,173.21z"/>
	<path fill="#5E5F5F" d="M558.693,171.01v14.4h-5.601v-26.6h5.601v4.85c0.899-1.633,2.141-2.916,3.725-3.85
		c1.583-0.934,3.291-1.4,5.125-1.4c3,0,5.425,0.917,7.275,2.75c1.85,1.834,2.774,4.483,2.774,7.95v16.3h-5.6v-14.6
		c0-4.9-2.034-7.351-6.101-7.351c-1.934,0-3.617,0.643-5.05,1.925C559.409,166.669,558.693,168.544,558.693,171.01z"/>
	<path fill="#5E5F5F" d="M585.743,153.51c-0.7-0.699-1.051-1.532-1.051-2.5c0-0.966,0.351-1.8,1.051-2.5
		c0.699-0.699,1.532-1.05,2.5-1.05c0.966,0,1.8,0.351,2.5,1.05c0.699,0.7,1.05,1.534,1.05,2.5c0,0.968-0.351,1.801-1.05,2.5
		c-0.7,0.7-1.534,1.051-2.5,1.051C587.275,154.561,586.442,154.21,585.743,153.51z M590.993,185.41h-5.601v-26.6h5.601V185.41z"/>
	<path fill="#5E5F5F" d="M610.891,185.811c-3.699,0-6.883-1.258-9.55-3.775c-2.667-2.517-4-5.808-4-9.875
		c0-4.066,1.392-7.375,4.175-9.925s6.176-3.825,10.176-3.825s7.383,1.384,10.149,4.15l-3.3,4.05c-2.3-2-4.617-3-6.95-3
		s-4.358,0.774-6.075,2.325c-1.717,1.55-2.574,3.55-2.574,6c0,2.449,0.85,4.524,2.55,6.225s3.791,2.55,6.274,2.55
		s4.825-1.133,7.025-3.399l3.3,3.6C618.858,184.178,615.125,185.811,610.891,185.811z"/>
	<path fill="#5E5F5F" d="M649.241,185.41h-5.1v-3.55c-2.2,2.634-5.15,3.95-8.85,3.95c-2.768,0-5.059-0.783-6.875-2.351
		c-1.817-1.566-2.726-3.657-2.726-6.274s0.967-4.575,2.9-5.875c1.933-1.301,4.55-1.95,7.85-1.95h7.25v-1
		c0-3.533-1.967-5.3-5.899-5.3c-2.468,0-5.034,0.899-7.7,2.699l-2.5-3.5c3.232-2.566,6.899-3.85,11-3.85
		c3.133,0,5.691,0.792,7.675,2.375c1.982,1.584,2.975,4.075,2.975,7.475V185.41z M643.641,175.51v-2.25h-6.3
		c-4.034,0-6.05,1.268-6.05,3.801c0,1.3,0.5,2.292,1.5,2.975c1,0.684,2.391,1.025,4.175,1.025c1.782,0,3.341-0.5,4.675-1.5
		C642.974,178.561,643.641,177.21,643.641,175.51z"/>
	<path fill="#5E5F5F" d="M673.441,191.26c0,1.267-0.518,2.375-1.55,3.325c-1.034,0.95-2.343,1.425-3.926,1.425
		s-2.975-0.367-4.175-1.1l1.3-2.85c0.633,0.332,1.275,0.5,1.926,0.5c0.649,0,1.157-0.192,1.524-0.575
		c0.366-0.384,0.55-0.843,0.55-1.375c0-0.534-0.191-1.009-0.574-1.425c-0.384-0.418-0.867-0.625-1.45-0.625
		c-0.584,0-1.075,0.082-1.476,0.25l1.65-3.101c-3.367-0.399-6.192-1.825-8.475-4.274c-2.284-2.45-3.426-5.625-3.426-9.525
		s1.392-7.125,4.176-9.675c2.782-2.55,6.175-3.825,10.175-3.825s7.383,1.384,10.149,4.15l-3.3,4.05c-2.3-2-4.617-3-6.95-3
		s-4.358,0.774-6.074,2.325c-1.718,1.55-2.575,3.55-2.575,6c0,2.449,0.841,4.524,2.524,6.225s3.775,2.55,6.275,2.55
		s4.85-1.133,7.05-3.399l3.3,3.6c-2.733,2.733-5.833,4.317-9.3,4.75l-0.85,1.65C672.274,187.61,673.441,188.927,673.441,191.26z"/>
	<path fill="#5E5F5F" d="M707.44,185.41h-5.1v-3.55c-2.2,2.634-5.15,3.95-8.85,3.95c-2.768,0-5.059-0.783-6.875-2.351
		c-1.817-1.566-2.726-3.657-2.726-6.274s0.967-4.575,2.9-5.875c1.933-1.301,4.55-1.95,7.85-1.95h7.25v-1
		c0-3.533-1.967-5.3-5.899-5.3c-2.468,0-5.034,0.899-7.7,2.699l-2.5-3.5c3.232-2.566,6.899-3.85,11-3.85
		c3.133,0,5.691,0.792,7.675,2.375c1.982,1.584,2.975,4.075,2.975,7.475V185.41z M700.09,155.561c-0.867,0-2.075-0.392-3.625-1.176
		c-1.55-0.782-2.542-1.175-2.975-1.175c-1.101,0-1.668,0.733-1.7,2.2h-3.7c0-1.933,0.392-3.5,1.175-4.7s1.875-1.8,3.275-1.8
		c0.899,0,2.149,0.393,3.75,1.175c1.6,0.784,2.649,1.175,3.149,1.175c1,0,1.5-0.732,1.5-2.199h3.75
		C704.59,153.394,703.057,155.561,700.09,155.561z M701.84,175.51v-2.25h-6.3c-4.034,0-6.05,1.268-6.05,3.801
		c0,1.3,0.5,2.292,1.5,2.975c1,0.684,2.391,1.025,4.175,1.025c1.782,0,3.341-0.5,4.675-1.5
		C701.173,178.561,701.84,177.21,701.84,175.51z"/>
	<path fill="#5E5F5F" d="M737.49,181.835c-2.667,2.65-6,3.976-10,3.976s-7.333-1.325-10-3.976c-2.667-2.649-4-5.892-4-9.725
		s1.333-7.075,4-9.726c2.667-2.649,6-3.975,10-3.975s7.333,1.325,10,3.975c2.667,2.65,4,5.893,4,9.726
		S740.157,179.186,737.49,181.835z M721.465,178.385c1.582,1.617,3.591,2.426,6.024,2.426c2.433,0,4.441-0.809,6.025-2.426
		c1.583-1.616,2.375-3.707,2.375-6.274c0-2.566-0.792-4.658-2.375-6.275c-1.584-1.616-3.593-2.425-6.025-2.425
		c-2.434,0-4.442,0.809-6.024,2.425c-1.584,1.617-2.375,3.709-2.375,6.275C719.09,174.678,719.881,176.769,721.465,178.385z"/>
</g>
</svg>
