<?xml version="1.0" encoding="utf-8"?>
<!-- Generator: Adobe Illustrator 17.0.0, SVG Export Plug-In . SVG Version: 6.00 Build 0)  -->
<!DOCTYPE svg PUBLIC "-//W3C//DTD SVG 1.1//EN" "http://www.w3.org/Graphics/SVG/1.1/DTD/svg11.dtd">
<svg version="1.1" id="Isolation_Mode" xmlns="http://www.w3.org/2000/svg" xmlns:xlink="http://www.w3.org/1999/xlink" x="0px"
	 y="0px" width="18.337px" height="21.54px" viewBox="0 0 18.337 21.54" enable-background="new 0 0 18.337 21.54"
	 xml:space="preserve">
<path fill="#E8442F" d="M14.776,13.682c1.551-1.233,2.327-3.179,2.327-5.84c0-2.66-0.755-4.633-2.265-5.917
	C13.328,0.642,10.919,0,7.612,0H0v7.151h4.807V4.129H7.55c1.582,0,2.747,0.262,3.498,0.786c0.75,0.524,1.125,1.407,1.125,2.65
	c0,1.243-0.288,2.188-0.863,2.835c-0.575,0.647-1.664,0.971-3.266,0.971H5.69C4.09,11.436,0,12.046,0,16.582v4.959h4.807v-3.774
	c0.03-0.64,0.307-2.235,2.313-2.235h0.553c0.296,0,0.583-0.007,0.865-0.018l4.175,6.027h5.623l-4.882-7.047
	C13.947,14.262,14.387,13.991,14.776,13.682z"/>
</svg>
